<?xml version="1.0" standalone="no"?>
<!DOCTYPE svg PUBLIC "-//W3C//DTD SVG 20010904//EN"
 "http://www.w3.org/TR/2001/REC-SVG-20010904/DTD/svg10.dtd">
<svg version="1.0" xmlns="http://www.w3.org/2000/svg"
 width="1424.000000pt" height="1424.000000pt" viewBox="0 0 1424.000000 1424.000000"
 preserveAspectRatio="xMidYMid meet">
<metadata>
Created by potrace 1.14, written by Peter Selinger 2001-2017
</metadata>
<g transform="translate(0.000000,1424.000000) scale(0.100000,-0.100000)"
fill="#000000" stroke="none">
<path d="M3031 11548 c-7 -23 -18 -53 -24 -67 -5 -14 -11 -30 -12 -36 -3 -10
-62 -187 -73 -215 -3 -8 -6 -17 -7 -20 -15 -54 -62 -187 -68 -191 -5 -3 -8
-10 -8 -15 1 -9 -15 -64 -26 -94 -8 -20 -8 -21 -18 -55 -4 -16 -11 -34 -15
-40 -4 -5 -11 -23 -15 -40 -9 -34 -10 -35 -18 -55 -3 -8 -15 -46 -27 -85 -12
-38 -28 -83 -35 -100 -13 -32 -27 -73 -31 -91 -2 -14 -63 -192 -74 -219 -7
-17 -31 -87 -35 -105 -1 -3 -5 -14 -9 -25 -4 -11 -12 -31 -16 -45 -4 -14 -11
-34 -16 -45 -4 -11 -8 -27 -10 -35 -2 -8 -7 -23 -13 -35 -9 -19 -33 -88 -37
-110 -1 -5 -6 -21 -12 -35 -5 -14 -10 -27 -11 -30 0 -3 -12 -39 -27 -80 -14
-41 -27 -79 -28 -85 -2 -5 -6 -17 -9 -25 -6 -12 -90 -260 -101 -295 -2 -5 -6
-18 -10 -27 -4 -9 -9 -22 -10 -30 -2 -7 -6 -22 -10 -33 -5 -11 -12 -31 -16
-45 -4 -14 -12 -34 -16 -45 -10 -27 -9 -26 -19 -60 -4 -16 -11 -34 -15 -40 -4
-5 -11 -26 -15 -45 -4 -19 -12 -41 -17 -47 -6 -7 -7 -13 -3 -13 4 0 3 -6 -3
-12 -9 -11 -11 -17 -12 -30 0 -2 -16 -48 -35 -103 -20 -55 -37 -107 -39 -115
-2 -8 -29 -87 -59 -175 -30 -88 -76 -223 -102 -300 -25 -77 -49 -147 -52 -155
-4 -8 -7 -17 -8 -20 -1 -3 -4 -12 -8 -20 -3 -8 -26 -78 -52 -155 -25 -77 -48
-147 -52 -155 -3 -8 -7 -19 -9 -25 -1 -5 -14 -44 -29 -85 -21 -63 -65 -193
-70 -210 -1 -3 -5 -12 -8 -20 -4 -8 -25 -71 -47 -140 -23 -69 -45 -134 -50
-145 -9 -19 -80 -230 -85 -250 -1 -5 -5 -17 -8 -25 -4 -8 -18 -51 -33 -95 -15
-44 -31 -86 -37 -92 -5 -7 -7 -13 -4 -13 3 0 -3 -26 -14 -57 -11 -32 -22 -65
-24 -73 -3 -8 -13 -40 -24 -70 -18 -51 -75 -219 -251 -735 -40 -115 -73 -214
-74 -220 -1 -5 -4 -14 -7 -20 -4 -5 -16 -41 -28 -80 -13 -38 -26 -79 -31 -90
-7 -16 -31 -86 -35 -105 -1 -3 -4 -12 -8 -20 -8 -21 -49 -143 -52 -155 -1 -5
-5 -17 -8 -25 -4 -8 -39 -109 -77 -225 -39 -115 -73 -217 -77 -225 -3 -8 -7
-17 -8 -20 0 -3 -18 -56 -39 -117 -20 -62 -38 -116 -38 -120 0 -5 -3 -12 -7
-18 -4 -5 -36 -98 -72 -205 -35 -107 -68 -198 -74 -202 -5 -4 -6 -10 -2 -14 4
-4 3 -12 -2 -18 -6 -7 -12 -23 -15 -36 -2 -14 -12 -43 -21 -64 -9 -22 -18 -47
-20 -55 -2 -9 -22 -70 -45 -136 -23 -66 -43 -127 -45 -135 -2 -8 -31 -94 -65
-190 -34 -96 -62 -179 -64 -185 -7 -32 -40 -122 -49 -132 -5 -7 -7 -13 -4 -13
5 0 -17 -70 -38 -122 -7 -17 50 -18 1112 -18 l1119 0 32 102 c18 57 48 153 68
213 19 61 37 117 39 125 1 8 14 48 28 88 14 39 24 72 21 72 -2 0 2 13 11 30 8
16 15 31 14 32 -2 4 60 208 74 243 6 17 12 32 12 35 1 3 5 16 9 30 4 14 30 97
57 185 28 88 54 168 60 177 5 10 9 26 9 37 0 10 6 23 13 28 9 7 3277 11 3320
4 4 0 7 -9 7 -19 0 -10 3 -22 7 -26 4 -3 8 -13 10 -21 4 -21 9 -37 16 -55 8
-23 49 -149 51 -163 2 -7 6 -19 9 -27 3 -8 12 -37 21 -65 46 -145 110 -345
123 -385 8 -25 16 -52 18 -61 2 -8 10 -32 19 -54 9 -21 14 -40 12 -43 -3 -2 1
-17 10 -33 8 -16 14 -30 14 -31 -1 -2 1 -10 4 -18 23 -71 39 -125 37 -125 -1
0 8 -27 19 -60 12 -33 23 -67 25 -75 2 -8 4 -15 5 -15 1 0 3 -7 5 -15 2 -8 10
-35 18 -60 l14 -45 1123 -3 c899 -2 1121 0 1113 10 -6 7 -13 25 -17 40 -3 15
-11 40 -18 55 -12 30 -15 39 -21 63 -2 8 -7 22 -10 30 -9 22 -67 192 -72 210
-6 22 -21 68 -40 120 -9 25 -19 52 -21 60 -2 8 -39 119 -83 245 -86 252 -86
252 -108 310 -8 22 -15 42 -15 45 -1 7 -3 14 -28 90 -24 69 -31 94 -31 97 0 2
-14 40 -31 85 -16 46 -32 90 -33 98 -2 8 -4 15 -5 15 -1 0 -3 7 -5 15 -1 8
-15 46 -29 84 -14 37 -26 77 -26 87 0 11 -5 19 -12 19 -6 0 -8 3 -5 6 3 4 2
15 -4 26 -6 11 -12 29 -14 41 -3 12 -9 31 -14 42 -5 11 -23 65 -41 120 -17 55
-34 107 -37 115 -4 8 -7 20 -9 25 -8 27 -106 312 -111 325 -4 8 -7 18 -8 23
-2 4 -4 9 -5 12 -3 5 -3 6 -15 50 -4 17 -10 34 -13 40 -9 14 -132 377 -138
404 -3 13 -11 35 -18 50 -7 14 -19 49 -26 76 -7 28 -17 56 -23 63 -5 6 -7 12
-3 12 4 0 0 12 -7 28 -8 15 -17 39 -21 55 l-6 27 1692 0 1693 0 33 -108 c18
-59 35 -113 37 -120 3 -7 4 -14 5 -17 0 -3 7 -19 15 -35 9 -17 13 -30 11 -30
-3 0 12 -51 33 -112 21 -62 39 -116 40 -120 1 -4 3 -13 6 -20 9 -29 66 -210
95 -303 17 -55 34 -107 37 -115 3 -8 7 -19 8 -25 2 -5 22 -68 45 -140 23 -71
51 -159 62 -195 11 -36 23 -72 26 -80 3 -8 6 -17 7 -20 0 -3 16 -52 35 -110
19 -58 34 -107 35 -110 2 -11 97 -307 108 -335 6 -16 12 -34 13 -40 0 -5 2
-13 4 -17 1 -5 3 -11 4 -15 1 -5 6 -21 13 -38 6 -16 30 -91 53 -165 23 -74 44
-142 47 -150 3 -8 8 -21 10 -27 1 -7 5 -19 6 -25 2 -7 7 -20 10 -28 3 -8 15
-46 27 -85 12 -38 23 -76 26 -83 2 -7 4 -14 5 -17 0 -2 11 -35 24 -72 13 -37
22 -71 19 -75 -3 -4 0 -8 7 -8 7 0 9 -3 6 -7 -4 -3 -3 -11 2 -17 6 -6 12 -23
14 -36 2 -14 7 -32 10 -40 5 -13 25 -73 104 -323 8 -27 20 -50 27 -53 6 -2
509 -3 1117 -2 l1106 3 -24 75 c-13 41 -27 82 -30 90 -3 8 -7 18 -8 23 -2 4
-3 8 -5 10 -1 1 -3 9 -5 17 -6 23 -135 402 -145 425 -7 16 -50 145 -55 165 -1
3 -4 12 -8 20 -3 8 -38 112 -77 230 -40 118 -74 222 -77 230 -19 52 -134 388
-137 400 -2 8 -9 27 -15 43 -6 15 -8 27 -5 27 4 0 2 6 -4 13 -11 13 -114 313
-115 335 0 6 -4 12 -9 12 -4 0 -8 7 -8 15 0 13 -40 139 -68 215 -3 8 -6 20 -8
25 -20 64 -93 268 -98 272 -3 4 -6 17 -6 29 0 13 -4 25 -9 28 -5 3 -11 18 -14
33 -2 16 -39 127 -82 248 -42 121 -78 227 -80 235 -3 13 -184 545 -185 545 -1
0 -141 413 -144 425 -2 8 -16 45 -30 83 -14 37 -22 67 -19 67 4 0 2 5 -5 12
-7 7 -12 20 -12 30 0 10 -4 26 -9 36 -12 21 -24 54 -26 67 -1 6 -7 23 -13 38
-7 16 -12 34 -12 41 0 6 -5 17 -12 24 -7 7 -9 12 -6 12 4 0 -4 30 -18 68 -14
37 -27 74 -29 82 -2 8 -45 134 -95 280 -50 146 -92 270 -94 275 -1 6 -4 15 -8
20 -3 6 -9 27 -13 48 -4 20 -12 37 -18 37 -6 0 -8 3 -4 6 3 3 -5 33 -18 67
-13 34 -23 66 -23 70 0 4 -4 20 -10 35 -6 15 -13 36 -18 47 -4 11 -8 25 -10
30 -1 6 -48 143 -104 305 -120 351 -181 531 -185 545 -1 6 -5 17 -8 25 -9 23
-129 373 -132 385 -1 5 -5 18 -9 27 -4 9 -9 22 -10 30 -2 7 -6 22 -10 33 -5
11 -14 37 -22 58 -8 20 -10 37 -6 37 4 0 2 4 -3 8 -9 5 -31 64 -40 102 -3 15
-17 58 -25 75 -16 39 -32 84 -31 87 1 2 -16 54 -39 116 -22 61 -37 112 -34
112 4 0 0 10 -8 23 -8 12 -20 42 -27 67 -6 25 -16 54 -21 65 -5 11 -32 90 -61
175 -28 85 -108 319 -176 520 -68 201 -126 370 -127 375 -2 6 -8 21 -13 35 -6
14 -12 34 -14 45 -4 20 -13 20 -1032 23 -585 1 -1027 -2 -1027 -7 0 -5 7 -28
15 -51 8 -24 17 -52 20 -64 2 -12 17 -59 33 -106 16 -47 44 -132 62 -190 18
-58 36 -114 40 -125 8 -20 16 -48 90 -280 22 -71 44 -137 47 -145 3 -8 7 -19
8 -25 3 -10 76 -239 183 -575 28 -85 57 -175 66 -200 9 -25 16 -53 16 -62 0
-10 4 -18 8 -18 5 0 9 -6 9 -12 0 -16 41 -156 53 -183 7 -17 67 -201 74 -230
2 -5 6 -17 9 -25 9 -24 106 -334 107 -342 1 -4 7 -23 16 -43 8 -19 14 -37 14
-40 0 -3 2 -10 5 -17 2 -7 18 -58 35 -113 17 -55 34 -107 37 -115 3 -8 8 -26
10 -40 2 -14 8 -29 14 -35 5 -5 9 -15 9 -21 0 -7 5 -25 11 -41 7 -15 13 -35
14 -43 2 -8 13 -44 25 -80 12 -36 23 -72 24 -80 1 -9 5 -20 8 -25 7 -13 39
-112 42 -130 1 -8 5 -18 9 -21 4 -4 7 -18 7 -31 0 -12 5 -23 11 -23 6 0 9 -6
6 -14 -3 -7 0 -19 6 -25 6 -6 8 -11 4 -11 -4 0 -3 -9 3 -21 6 -11 13 -28 15
-37 2 -9 6 -25 10 -34 5 -12 2 -18 -6 -19 -58 -4 -3370 -3 -3392 1 -26 5 -31
15 -88 185 -33 99 -63 187 -66 195 -3 8 -7 17 -8 20 -12 41 -48 147 -115 340
-44 129 -82 240 -84 245 -2 6 -6 17 -9 25 -5 14 -40 120 -42 130 -1 3 -4 12
-8 20 -3 8 -22 65 -42 125 -20 61 -39 117 -42 125 -4 8 -7 17 -8 20 -2 11 -37
116 -42 130 -4 8 -7 18 -8 23 -2 4 -3 8 -4 10 -4 7 -72 205 -76 222 -3 11 -25
79 -51 150 -36 104 -79 231 -89 265 -1 3 -5 12 -8 20 -3 8 -24 71 -47 140 -22
69 -45 134 -50 145 -5 11 -11 29 -12 40 -2 11 -5 22 -8 25 -3 3 -25 66 -49
140 -24 74 -47 140 -51 145 -5 8 -28 82 -36 115 0 3 -4 14 -8 25 -4 11 -12 34
-18 50 -5 17 -14 39 -18 50 -5 11 -41 117 -80 235 -39 118 -74 222 -77 230 -4
8 -7 17 -8 20 -1 3 -7 24 -15 48 l-13 42 -1302 0 -1302 0 -12 -42z m1355
-2425 c21 -65 39 -120 40 -123 0 -3 3 -12 7 -20 3 -8 21 -64 40 -125 74 -238
159 -501 167 -520 7 -18 34 -103 36 -115 0 -3 3 -12 7 -20 4 -12 88 -274 139
-440 6 -19 9 -35 7 -36 -2 0 1 -7 7 -15 10 -12 15 -26 30 -84 1 -5 25 -80 53
-165 28 -85 61 -186 72 -225 12 -38 25 -79 29 -90 5 -11 14 -38 20 -60 6 -22
16 -49 21 -60 5 -11 11 -29 12 -40 2 -11 7 -28 11 -37 4 -9 8 -22 10 -30 1 -7
4 -17 7 -23 4 -5 10 -23 14 -40 5 -16 9 -34 11 -40 1 -5 17 -53 34 -105 17
-52 33 -102 35 -110 2 -8 15 -49 28 -90 14 -41 48 -149 76 -240 29 -91 61
-190 71 -221 11 -31 20 -61 20 -68 0 -8 -266 -11 -1045 -11 -590 0 -1045 4
-1045 9 0 5 7 27 15 50 8 23 15 43 15 46 1 6 2 11 36 115 15 47 27 91 27 98 0
6 5 12 10 12 6 0 8 3 4 6 -3 3 1 25 10 47 8 23 16 49 18 57 2 8 23 74 46 145
23 72 43 135 45 140 1 6 9 33 19 60 9 28 18 57 20 65 2 8 13 42 25 75 11 33
22 69 24 80 2 11 9 34 15 50 40 112 49 143 44 149 -4 3 0 6 7 6 7 0 11 2 8 6
-3 3 5 37 19 77 14 40 26 79 28 87 2 8 4 16 4 18 1 1 1 5 2 10 0 4 5 13 11 20
6 6 8 12 4 12 -3 0 0 17 8 38 8 20 17 46 22 57 4 11 8 25 9 31 2 5 24 77 51
160 26 82 49 151 49 154 1 3 14 44 29 92 15 48 26 89 25 90 -1 2 4 14 11 28 8
14 15 30 16 37 2 13 23 80 31 103 3 8 7 20 8 25 2 6 12 37 23 70 11 33 41 128
67 210 43 138 69 217 83 255 3 8 6 17 7 20 0 3 12 39 25 80 13 41 24 77 25 80
0 3 18 59 40 125 21 66 39 122 40 125 3 15 17 50 20 50 2 0 20 -53 41 -117z"/>
</g>
</svg>
